<svg xmlns="http://www.w3.org/2000/svg" xmlns:xlink="http://www.w3.org/1999/xlink" width="50" zoomAndPan="magnify" viewBox="0 0 37.5 37.499999" height="50" preserveAspectRatio="xMidYMid meet" version="1.0"><defs><clipPath id="983a880876"><path d="M 0 0 L 37.007812 0 L 37.007812 37.007812 L 0 37.007812 Z M 0 0 " clip-rule="nonzero"/></clipPath></defs><path fill="#2a3439" d="M 18.476562 17.988281 L 9.988281 11.710938 L 27.511719 11.710938 L 19.023438 17.988281 C 18.839844 18.128906 18.660156 18.128906 18.476562 17.988281 Z M 18.476562 17.988281 " fill-opacity="1" fill-rule="nonzero"/><path fill="#2a3439" d="M 20.675781 20.226562 L 30.335938 13.074219 L 30.335938 25.324219 C 30.335938 25.453125 30.292969 25.5625 30.203125 25.652344 C 30.113281 25.742188 30.003906 25.789062 29.875 25.789062 L 7.625 25.789062 C 7.496094 25.789062 7.386719 25.742188 7.296875 25.652344 C 7.207031 25.5625 7.164062 25.453125 7.164062 25.324219 L 7.164062 13.074219 L 16.824219 20.226562 C 17.101562 20.4375 17.40625 20.597656 17.734375 20.707031 C 18.0625 20.820312 18.402344 20.875 18.75 20.875 C 19.097656 20.875 19.4375 20.820312 19.765625 20.707031 C 20.09375 20.597656 20.398438 20.4375 20.675781 20.226562 Z M 20.675781 20.226562 " fill-opacity="1" fill-rule="nonzero"/><g clip-path="url(#983a880876)"><path fill="#2a3439" d="M 32.5 0 L 5 0 C 4.671875 0 4.347656 0.03125 4.023438 0.0976562 C 3.703125 0.160156 3.390625 0.253906 3.085938 0.378906 C 2.78125 0.503906 2.496094 0.660156 2.222656 0.84375 C 1.949219 1.023438 1.695312 1.230469 1.464844 1.464844 C 1.230469 1.695312 1.023438 1.949219 0.84375 2.222656 C 0.660156 2.496094 0.503906 2.78125 0.378906 3.085938 C 0.253906 3.390625 0.160156 3.703125 0.0976562 4.023438 C 0.03125 4.347656 0 4.671875 0 5 L 0 32.5 C 0 32.828125 0.03125 33.152344 0.0976562 33.476562 C 0.160156 33.796875 0.253906 34.109375 0.378906 34.414062 C 0.503906 34.71875 0.660156 35.003906 0.84375 35.277344 C 1.023438 35.550781 1.230469 35.804688 1.464844 36.035156 C 1.695312 36.269531 1.949219 36.476562 2.222656 36.65625 C 2.496094 36.839844 2.78125 36.996094 3.085938 37.121094 C 3.390625 37.246094 3.703125 37.339844 4.023438 37.402344 C 4.347656 37.46875 4.671875 37.5 5 37.5 L 32.5 37.5 C 32.828125 37.5 33.152344 37.46875 33.476562 37.402344 C 33.796875 37.339844 34.109375 37.246094 34.414062 37.121094 C 34.71875 36.996094 35.003906 36.839844 35.277344 36.65625 C 35.550781 36.476562 35.804688 36.269531 36.035156 36.035156 C 36.269531 35.804688 36.476562 35.550781 36.65625 35.277344 C 36.839844 35.003906 36.996094 34.71875 37.121094 34.414062 C 37.246094 34.109375 37.339844 33.796875 37.402344 33.476562 C 37.46875 33.152344 37.5 32.828125 37.5 32.5 L 37.5 5 C 37.5 4.671875 37.46875 4.347656 37.402344 4.023438 C 37.339844 3.703125 37.246094 3.390625 37.121094 3.085938 C 36.996094 2.78125 36.839844 2.496094 36.65625 2.222656 C 36.476562 1.949219 36.269531 1.695312 36.035156 1.464844 C 35.804688 1.230469 35.550781 1.023438 35.277344 0.84375 C 35.003906 0.660156 34.71875 0.503906 34.414062 0.378906 C 34.109375 0.253906 33.796875 0.160156 33.476562 0.0976562 C 33.152344 0.03125 32.828125 0 32.5 0 Z M 33.125 25.324219 C 33.125 25.753906 33.039062 26.167969 32.875 26.566406 C 32.710938 26.964844 32.476562 27.316406 32.171875 27.621094 C 31.867188 27.925781 31.515625 28.160156 31.117188 28.324219 C 30.71875 28.492188 30.304688 28.574219 29.875 28.574219 L 7.625 28.574219 C 7.195312 28.574219 6.78125 28.492188 6.382812 28.324219 C 5.984375 28.160156 5.632812 27.925781 5.328125 27.621094 C 5.023438 27.316406 4.789062 26.964844 4.625 26.566406 C 4.460938 26.167969 4.375 25.753906 4.375 25.324219 L 4.375 12.175781 C 4.375 11.746094 4.460938 11.332031 4.625 10.933594 C 4.789062 10.535156 5.023438 10.183594 5.328125 9.878906 C 5.632812 9.574219 5.984375 9.339844 6.382812 9.175781 C 6.78125 9.007812 7.195312 8.925781 7.625 8.925781 L 29.875 8.925781 C 30.304688 8.925781 30.71875 9.007812 31.117188 9.175781 C 31.515625 9.339844 31.867188 9.574219 32.171875 9.878906 C 32.476562 10.183594 32.710938 10.535156 32.875 10.933594 C 33.039062 11.332031 33.125 11.746094 33.125 12.175781 Z M 33.125 25.324219 " fill-opacity="1" fill-rule="nonzero"/></g></svg>