<svg xmlns="http://www.w3.org/2000/svg" xmlns:xlink="http://www.w3.org/1999/xlink" width="50" zoomAndPan="magnify" viewBox="0 0 37.5 37.499999" height="50" preserveAspectRatio="xMidYMid meet" version="1.0"><defs><clipPath id="7f2c9cdf54"><path d="M 0 0 L 37.007812 0 L 37.007812 37.007812 L 0 37.007812 Z M 0 0 " clip-rule="nonzero"/></clipPath></defs><g clip-path="url(#7f2c9cdf54)"><path fill="#2a3439" d="M 31.277344 0 L 6.222656 0 C 5.8125 0 5.410156 0.0390625 5.007812 0.121094 C 4.609375 0.199219 4.21875 0.320312 3.84375 0.476562 C 3.464844 0.632812 3.105469 0.824219 2.765625 1.050781 C 2.425781 1.277344 2.113281 1.535156 1.824219 1.824219 C 1.535156 2.113281 1.277344 2.425781 1.050781 2.765625 C 0.824219 3.105469 0.632812 3.464844 0.476562 3.84375 C 0.320312 4.21875 0.199219 4.609375 0.121094 5.007812 C 0.0390625 5.410156 0 5.8125 0 6.222656 L 0 31.28125 C 0 31.6875 0.0429688 32.09375 0.121094 32.492188 C 0.203125 32.894531 0.320312 33.28125 0.476562 33.660156 C 0.632812 34.035156 0.824219 34.394531 1.050781 34.734375 C 1.277344 35.074219 1.535156 35.386719 1.824219 35.675781 C 2.113281 35.964844 2.429688 36.222656 2.765625 36.449219 C 3.105469 36.675781 3.464844 36.867188 3.84375 37.023438 C 4.21875 37.179688 4.609375 37.300781 5.007812 37.378906 C 5.410156 37.460938 5.8125 37.5 6.222656 37.5 L 31.277344 37.5 C 31.6875 37.5 32.089844 37.460938 32.492188 37.378906 C 32.890625 37.300781 33.28125 37.179688 33.65625 37.023438 C 34.035156 36.867188 34.394531 36.675781 34.734375 36.449219 C 35.070312 36.222656 35.386719 35.964844 35.675781 35.675781 C 35.964844 35.386719 36.222656 35.074219 36.449219 34.734375 C 36.675781 34.394531 36.867188 34.035156 37.023438 33.660156 C 37.179688 33.28125 37.296875 32.894531 37.378906 32.492188 C 37.457031 32.09375 37.5 31.6875 37.5 31.28125 L 37.5 6.222656 C 37.5 5.8125 37.460938 5.410156 37.378906 5.007812 C 37.300781 4.609375 37.179688 4.21875 37.023438 3.84375 C 36.867188 3.464844 36.675781 3.105469 36.449219 2.765625 C 36.222656 2.425781 35.964844 2.113281 35.675781 1.824219 C 35.386719 1.535156 35.074219 1.277344 34.734375 1.050781 C 34.394531 0.824219 34.035156 0.632812 33.65625 0.476562 C 33.28125 0.320312 32.890625 0.199219 32.492188 0.121094 C 32.089844 0.0390625 31.6875 0 31.277344 0 Z M 23.335938 32.875 C 22.804688 33.03125 22.3125 32.945312 21.867188 32.613281 C 21.519531 32.3125 21.347656 31.929688 21.359375 31.46875 L 21.359375 30.699219 C 21.359375 29.992188 21.371094 28.925781 21.371094 27.699219 C 21.445312 26.949219 21.230469 26.300781 20.71875 25.75 C 20.457031 25.527344 20.378906 25.25 20.480469 24.921875 C 20.582031 24.589844 20.804688 24.410156 21.148438 24.371094 C 24.027344 24.042969 26.691406 23.101562 26.691406 18.375 C 26.710938 17.164062 26.3125 16.113281 25.492188 15.21875 C 25.269531 14.976562 25.21875 14.703125 25.339844 14.394531 C 25.640625 13.542969 25.648438 12.6875 25.371094 11.828125 C 24.359375 12.054688 23.441406 12.484375 22.621094 13.113281 C 22.417969 13.25 22.203125 13.285156 21.96875 13.222656 C 20.914062 12.933594 19.84375 12.789062 18.75 12.78125 C 17.660156 12.785156 16.59375 12.929688 15.542969 13.21875 C 15.308594 13.285156 15.089844 13.246094 14.890625 13.109375 C 14.066406 12.480469 13.148438 12.050781 12.136719 11.828125 C 11.859375 12.6875 11.871094 13.539062 12.167969 14.386719 C 12.292969 14.695312 12.242188 14.972656 12.019531 15.21875 C 11.199219 16.109375 10.796875 17.160156 10.820312 18.371094 C 10.820312 23.101562 13.617188 24.0625 16.351562 24.378906 C 16.570312 24.40625 16.746094 24.503906 16.882812 24.671875 C 17.019531 24.84375 17.074219 25.039062 17.046875 25.253906 C 17.015625 25.46875 16.917969 25.640625 16.746094 25.777344 C 16.578125 25.910156 16.386719 25.96875 16.171875 25.949219 C 13.195312 25.605469 9.242188 24.445312 9.242188 18.371094 C 9.226562 16.933594 9.660156 15.644531 10.546875 14.507812 C 10.226562 13.230469 10.320312 11.980469 10.824219 10.761719 C 10.917969 10.53125 11.078125 10.375 11.316406 10.296875 C 11.5625 10.214844 12.871094 9.929688 15.464844 11.601562 C 17.652344 11.0625 19.84375 11.0625 22.03125 11.601562 C 24.621094 9.925781 25.933594 10.214844 26.175781 10.296875 C 26.410156 10.375 26.574219 10.527344 26.664062 10.757812 C 27.179688 11.976562 27.277344 13.226562 26.953125 14.507812 C 27.839844 15.644531 28.273438 16.929688 28.257812 18.371094 C 28.257812 23.625 25.300781 25.199219 22.574219 25.742188 C 22.828125 26.367188 22.949219 27.019531 22.941406 27.699219 C 22.941406 28.925781 22.933594 29.996094 22.925781 30.710938 L 22.925781 31.324219 C 23.402344 31.15625 23.867188 30.964844 24.320312 30.746094 C 24.773438 30.527344 25.210938 30.28125 25.636719 30.007812 C 26.058594 29.738281 26.46875 29.441406 26.855469 29.125 C 27.246094 28.804688 27.617188 28.464844 27.964844 28.101562 C 28.316406 27.738281 28.640625 27.359375 28.945312 26.957031 C 29.25 26.558594 29.53125 26.140625 29.789062 25.707031 C 30.042969 25.273438 30.273438 24.824219 30.476562 24.367188 C 30.679688 23.90625 30.855469 23.433594 31.003906 22.953125 C 31.152344 22.472656 31.269531 21.984375 31.359375 21.488281 C 31.453125 20.992188 31.511719 20.496094 31.546875 19.992188 C 31.578125 19.488281 31.582031 18.988281 31.554688 18.484375 C 31.527344 17.980469 31.46875 17.480469 31.382812 16.984375 C 31.300781 16.488281 31.183594 16 31.042969 15.519531 C 30.898438 15.035156 30.726562 14.5625 30.53125 14.101562 C 30.332031 13.636719 30.105469 13.1875 29.855469 12.75 C 29.605469 12.316406 29.328125 11.894531 29.027344 11.492188 C 28.726562 11.085938 28.402344 10.703125 28.058594 10.335938 C 27.710938 9.972656 27.347656 9.625 26.960938 9.304688 C 26.574219 8.980469 26.167969 8.679688 25.75 8.40625 C 25.328125 8.128906 24.890625 7.878906 24.441406 7.65625 C 23.988281 7.433594 23.527344 7.234375 23.054688 7.066406 C 22.578125 6.894531 22.097656 6.753906 21.605469 6.640625 C 21.117188 6.527344 20.621094 6.441406 20.121094 6.386719 C 19.621094 6.332031 19.117188 6.304688 18.613281 6.308594 C 18.113281 6.3125 17.609375 6.347656 17.109375 6.410156 C 16.609375 6.472656 16.117188 6.5625 15.628906 6.683594 C 15.140625 6.804688 14.660156 6.953125 14.1875 7.128906 C 13.71875 7.304688 13.257812 7.511719 12.808594 7.742188 C 12.363281 7.972656 11.929688 8.226562 11.511719 8.511719 C 11.097656 8.792969 10.695312 9.097656 10.316406 9.425781 C 9.933594 9.753906 9.574219 10.101562 9.230469 10.472656 C 8.890625 10.84375 8.574219 11.234375 8.28125 11.644531 C 7.984375 12.050781 7.714844 12.476562 7.46875 12.914062 C 7.226562 13.355469 7.007812 13.808594 6.816406 14.273438 C 6.625 14.738281 6.460938 15.214844 6.324219 15.699219 C 6.1875 16.183594 6.082031 16.675781 6.003906 17.171875 C 5.925781 17.667969 5.875 18.167969 5.855469 18.671875 C 5.835938 19.175781 5.847656 19.675781 5.886719 20.179688 C 5.925781 20.679688 5.996094 21.179688 6.09375 21.671875 C 6.191406 22.167969 6.316406 22.652344 6.472656 23.132812 C 6.625 23.609375 6.808594 24.078125 7.019531 24.535156 C 7.230469 24.996094 7.464844 25.4375 7.726562 25.867188 C 7.988281 26.296875 8.277344 26.710938 8.585938 27.105469 C 8.898438 27.503906 9.230469 27.878906 9.585938 28.238281 C 9.9375 28.59375 10.3125 28.929688 10.707031 29.242188 C 11.101562 29.554688 11.511719 29.84375 11.941406 30.109375 C 12.371094 30.375 12.8125 30.613281 13.269531 30.824219 C 13.722656 31.039062 14.191406 31.222656 14.667969 31.382812 C 14.5625 30.414062 14.523438 29.441406 14.546875 28.464844 C 14.347656 28.484375 14.152344 28.5 13.96875 28.5 C 13.539062 28.53125 13.121094 28.492188 12.703125 28.386719 C 12.289062 28.28125 11.902344 28.113281 11.542969 27.882812 C 11.179688 27.652344 10.867188 27.371094 10.597656 27.039062 C 10.328125 26.703125 10.117188 26.339844 9.96875 25.9375 C 9.898438 25.726562 9.917969 25.523438 10.019531 25.328125 C 10.121094 25.132812 10.277344 25.003906 10.492188 24.9375 C 10.703125 24.875 10.90625 24.898438 11.097656 25.003906 C 11.292969 25.109375 11.417969 25.269531 11.476562 25.484375 C 11.539062 25.675781 12.214844 27.417969 15.164062 26.789062 C 15.378906 26.742188 15.574219 26.777344 15.757812 26.894531 C 15.941406 27.011719 16.058594 27.179688 16.101562 27.394531 C 16.128906 27.519531 16.121094 27.644531 16.082031 27.769531 C 16.101562 27.824219 16.117188 27.882812 16.121094 27.941406 C 16.128906 29.09375 16.140625 31.144531 16.140625 31.472656 C 16.148438 31.933594 15.976562 32.316406 15.628906 32.613281 C 15.34375 32.847656 15.015625 32.960938 14.648438 32.949219 C 14.523438 32.953125 14.398438 32.941406 14.277344 32.917969 C 13.734375 32.742188 13.207031 32.535156 12.691406 32.296875 C 12.179688 32.058594 11.679688 31.792969 11.195312 31.496094 C 10.710938 31.199219 10.246094 30.875 9.800781 30.523438 C 9.355469 30.171875 8.929688 29.796875 8.527344 29.394531 C 8.128906 28.992188 7.75 28.570312 7.398438 28.125 C 7.046875 27.675781 6.722656 27.210938 6.425781 26.730469 C 6.128906 26.246094 5.863281 25.746094 5.625 25.230469 C 5.386719 24.714844 5.179688 24.1875 5.003906 23.648438 C 4.828125 23.105469 4.683594 22.558594 4.574219 22.003906 C 4.460938 21.445312 4.382812 20.882812 4.339844 20.320312 C 4.292969 19.753906 4.28125 19.1875 4.304688 18.617188 C 4.324219 18.050781 4.378906 17.488281 4.46875 16.925781 C 4.554688 16.367188 4.675781 15.8125 4.828125 15.265625 C 4.984375 14.71875 5.167969 14.183594 5.382812 13.65625 C 5.601562 13.132812 5.847656 12.621094 6.125 12.128906 C 6.398438 11.632812 6.703125 11.152344 7.039062 10.695312 C 7.371094 10.234375 7.730469 9.792969 8.113281 9.375 C 8.496094 8.960938 8.90625 8.566406 9.335938 8.195312 C 9.765625 7.824219 10.21875 7.484375 10.6875 7.167969 C 11.160156 6.847656 11.648438 6.5625 12.152344 6.300781 C 12.660156 6.042969 13.175781 5.816406 13.710938 5.617188 C 14.242188 5.417969 14.78125 5.253906 15.335938 5.117188 C 15.886719 4.984375 16.445312 4.882812 17.007812 4.8125 C 17.570312 4.746094 18.136719 4.710938 18.703125 4.707031 C 19.273438 4.707031 19.835938 4.738281 20.402344 4.800781 C 20.964844 4.867188 21.523438 4.964844 22.078125 5.09375 C 22.628906 5.226562 23.171875 5.386719 23.707031 5.582031 C 24.238281 5.777344 24.757812 6.003906 25.265625 6.257812 C 25.773438 6.511719 26.261719 6.796875 26.734375 7.109375 C 27.210938 7.425781 27.664062 7.765625 28.097656 8.132812 C 28.527344 8.5 28.9375 8.890625 29.328125 9.304688 C 29.714844 9.71875 30.074219 10.15625 30.410156 10.613281 C 30.746094 11.070312 31.054688 11.546875 31.335938 12.039062 C 31.613281 12.535156 31.863281 13.042969 32.085938 13.566406 C 32.304688 14.089844 32.492188 14.625 32.648438 15.171875 C 32.808594 15.714844 32.929688 16.269531 33.023438 16.828125 C 33.113281 17.390625 33.171875 17.953125 33.199219 18.519531 C 33.226562 19.085938 33.21875 19.652344 33.175781 20.21875 C 33.132812 20.785156 33.058594 21.347656 32.953125 21.90625 C 32.84375 22.460938 32.707031 23.011719 32.535156 23.554688 C 32.359375 24.09375 32.15625 24.621094 31.921875 25.140625 C 31.6875 25.65625 31.425781 26.160156 31.132812 26.644531 C 30.839844 27.128906 30.515625 27.597656 30.167969 28.046875 C 29.820312 28.492188 29.445312 28.917969 29.046875 29.324219 C 28.648438 29.726562 28.226562 30.105469 27.785156 30.460938 C 27.339844 30.816406 26.878906 31.144531 26.398438 31.445312 C 25.914062 31.742188 25.417969 32.015625 24.902344 32.257812 C 24.390625 32.496094 23.863281 32.707031 23.324219 32.886719 Z M 23.335938 32.875 " fill-opacity="1" fill-rule="nonzero"/></g></svg>