<svg xmlns="http://www.w3.org/2000/svg" xmlns:xlink="http://www.w3.org/1999/xlink" width="50" zoomAndPan="magnify" viewBox="0 0 37.5 37.499999" height="50" preserveAspectRatio="xMidYMid meet" version="1.0"><defs><clipPath id="902daf5d8c"><path d="M 0 0 L 37.007812 0 L 37.007812 37.007812 L 0 37.007812 Z M 0 0 " clip-rule="nonzero"/></clipPath></defs><g clip-path="url(#902daf5d8c)"><path fill="#2a3439" d="M 31.699219 31.316406 C 31.699219 21.714844 31.699219 21.714844 31.699219 21.714844 C 31.699219 16.449219 28.9375 14.085938 25.253906 14.085938 C 22.226562 14.085938 20.78125 15.660156 20.121094 16.84375 C 20.121094 14.476562 20.121094 14.476562 20.121094 14.476562 C 14.464844 14.476562 14.464844 14.476562 14.464844 14.476562 C 14.464844 14.476562 14.59375 16.058594 14.464844 31.316406 C 20.121094 31.316406 20.121094 31.316406 20.121094 31.316406 C 20.121094 21.84375 20.121094 21.84375 20.121094 21.84375 C 20.121094 21.449219 20.121094 20.925781 20.253906 20.53125 C 20.78125 19.476562 21.699219 18.425781 23.148438 18.425781 C 25.253906 18.425781 26.042969 20 26.042969 22.371094 C 26.042969 31.316406 26.042969 31.316406 26.042969 31.316406 Z M 11.4375 31.316406 C 11.4375 14.476562 11.4375 14.476562 11.4375 14.476562 C 5.78125 14.476562 5.78125 14.476562 5.78125 14.476562 C 5.78125 31.316406 5.78125 31.316406 5.78125 31.316406 Z M 8.675781 6.324219 C 6.703125 6.324219 5.386719 7.507812 5.386719 9.21875 C 5.386719 10.792969 6.703125 12.109375 8.542969 12.109375 C 10.519531 12.109375 11.703125 10.792969 11.703125 9.21875 C 11.703125 7.507812 10.519531 6.324219 8.675781 6.324219 Z M 37.488281 30.394531 C 37.488281 34.34375 34.328125 37.5 30.382812 37.5 C 6.964844 37.5 6.964844 37.5 6.964844 37.5 C 3.152344 37.5 -0.0078125 34.34375 -0.0078125 30.394531 C -0.0078125 6.980469 -0.0078125 6.980469 -0.0078125 6.980469 C -0.0078125 3.164062 3.152344 0.0078125 6.964844 0.0078125 C 30.382812 0.0078125 30.382812 0.0078125 30.382812 0.0078125 C 34.332031 0.0078125 37.488281 3.164062 37.488281 6.980469 Z M 37.488281 30.394531 " fill-opacity="1" fill-rule="evenodd"/></g></svg>