<svg xmlns="http://www.w3.org/2000/svg" xmlns:xlink="http://www.w3.org/1999/xlink" width="400" zoomAndPan="magnify" viewBox="0 0 300 67.499998" height="90" preserveAspectRatio="xMidYMid meet" version="1.0"><defs><g/></defs><g fill="#ffffff" fill-opacity="1"><g transform="translate(4.273507, 46.158085)"><g><path d="M 8.984375 6.515625 C 7.242188 6.515625 5.875 6.023438 4.875 5.046875 C 3.875 4.078125 3.375 2.734375 3.375 1.015625 L 3.375 -6.625 C 3.375 -6.769531 3.34375 -6.898438 3.28125 -7.015625 C 3.21875 -7.140625 3.128906 -7.238281 3.015625 -7.3125 C 2.910156 -7.382812 2.785156 -7.421875 2.640625 -7.421875 L 0.71875 -7.421875 L 0.71875 -12.640625 L 2.640625 -12.640625 C 2.859375 -12.640625 3.035156 -12.722656 3.171875 -12.890625 C 3.304688 -13.066406 3.375 -13.265625 3.375 -13.484375 L 3.375 -20.984375 C 3.375 -22.691406 3.875 -24.03125 4.875 -25 C 5.875 -25.96875 7.242188 -26.453125 8.984375 -26.453125 L 13.265625 -26.453125 L 13.265625 -21.234375 L 10.078125 -21.234375 C 9.804688 -21.234375 9.578125 -21.144531 9.390625 -20.96875 C 9.210938 -20.800781 9.125 -20.585938 9.125 -20.328125 L 9.125 -13.984375 C 9.125 -13.398438 9.054688 -12.875 8.921875 -12.40625 C 8.796875 -11.9375 8.59375 -11.507812 8.3125 -11.125 C 8.039062 -10.738281 7.648438 -10.375 7.140625 -10.03125 C 7.648438 -9.71875 8.039062 -9.363281 8.3125 -8.96875 C 8.59375 -8.570312 8.796875 -8.128906 8.921875 -7.640625 C 9.054688 -7.160156 9.125 -6.59375 9.125 -5.9375 L 9.125 0.40625 C 9.125 0.664062 9.210938 0.878906 9.390625 1.046875 C 9.578125 1.210938 9.804688 1.296875 10.078125 1.296875 L 13.265625 1.296875 L 13.265625 6.515625 Z M 8.984375 6.515625 "/></g></g></g><g fill="#ffffff" fill-opacity="1"><g transform="translate(18.260437, 46.158085)"><g/></g></g><g fill="#ffffff" fill-opacity="1"><g transform="translate(27.862861, 46.158085)"><g><path d="M 20.46875 0.4375 C 18.96875 0.4375 17.570312 0.125 16.28125 -0.5 C 14.988281 -1.132812 13.953125 -2.054688 13.171875 -3.265625 C 12.390625 -4.472656 12 -5.910156 12 -7.578125 L 12 -18.015625 C 12 -18.367188 11.914062 -18.6875 11.75 -18.96875 C 11.59375 -19.25 11.378906 -19.457031 11.109375 -19.59375 C 10.847656 -19.738281 10.550781 -19.8125 10.21875 -19.8125 C 9.875 -19.8125 9.566406 -19.738281 9.296875 -19.59375 C 9.035156 -19.457031 8.820312 -19.25 8.65625 -18.96875 C 8.488281 -18.6875 8.40625 -18.367188 8.40625 -18.015625 L 8.40625 0 L 1.703125 0 L 1.703125 -17.75 C 1.703125 -19.394531 2.085938 -20.820312 2.859375 -22.03125 C 3.628906 -23.238281 4.660156 -24.171875 5.953125 -24.828125 C 7.253906 -25.492188 8.675781 -25.828125 10.21875 -25.828125 C 11.757812 -25.828125 13.171875 -25.492188 14.453125 -24.828125 C 15.734375 -24.171875 16.757812 -23.238281 17.53125 -22.03125 C 18.3125 -20.820312 18.703125 -19.394531 18.703125 -17.75 L 18.703125 -7.3125 C 18.703125 -6.976562 18.785156 -6.671875 18.953125 -6.390625 C 19.117188 -6.117188 19.332031 -5.898438 19.59375 -5.734375 C 19.863281 -5.578125 20.15625 -5.5 20.46875 -5.5 C 20.78125 -5.5 21.078125 -5.578125 21.359375 -5.734375 C 21.640625 -5.898438 21.863281 -6.117188 22.03125 -6.390625 C 22.195312 -6.671875 22.28125 -6.976562 22.28125 -7.3125 L 22.28125 -17.75 C 22.28125 -19.394531 22.664062 -20.820312 23.4375 -22.03125 C 24.21875 -23.238281 25.253906 -24.171875 26.546875 -24.828125 C 27.835938 -25.492188 29.253906 -25.828125 30.796875 -25.828125 C 32.316406 -25.828125 33.71875 -25.492188 35 -24.828125 C 36.28125 -24.171875 37.304688 -23.238281 38.078125 -22.03125 C 38.847656 -20.820312 39.234375 -19.394531 39.234375 -17.75 L 39.234375 0 L 32.578125 0 L 32.578125 -18.078125 C 32.578125 -18.421875 32.488281 -18.722656 32.3125 -18.984375 C 32.144531 -19.253906 31.925781 -19.457031 31.65625 -19.59375 C 31.394531 -19.738281 31.109375 -19.8125 30.796875 -19.8125 C 30.460938 -19.8125 30.15625 -19.738281 29.875 -19.59375 C 29.59375 -19.457031 29.375 -19.253906 29.21875 -18.984375 C 29.0625 -18.722656 28.984375 -18.421875 28.984375 -18.078125 L 28.984375 -7.578125 C 28.984375 -5.910156 28.582031 -4.472656 27.78125 -3.265625 C 26.988281 -2.054688 25.953125 -1.132812 24.671875 -0.5 C 23.390625 0.125 21.988281 0.4375 20.46875 0.4375 Z M 20.46875 0.4375 "/></g></g></g><g fill="#ffffff" fill-opacity="1"><g transform="translate(68.809038, 46.158085)"><g><path d="M 9.5 0.46875 C 7.875 0.46875 6.429688 0.0546875 5.171875 -0.765625 C 3.921875 -1.585938 2.9375 -2.71875 2.21875 -4.15625 C 1.507812 -5.59375 1.15625 -7.226562 1.15625 -9.0625 C 1.15625 -10.988281 1.582031 -12.710938 2.4375 -14.234375 C 3.300781 -15.753906 4.503906 -16.941406 6.046875 -17.796875 C 7.597656 -18.660156 9.421875 -19.09375 11.515625 -19.09375 C 13.578125 -19.09375 15.347656 -18.671875 16.828125 -17.828125 C 18.316406 -16.984375 19.46875 -15.820312 20.28125 -14.34375 C 21.101562 -12.875 21.515625 -11.1875 21.515625 -9.28125 L 21.515625 0 L 15.46875 0 L 15.46875 -2.90625 L 15.328125 -2.90625 C 14.984375 -2.25 14.546875 -1.664062 14.015625 -1.15625 C 13.484375 -0.65625 12.847656 -0.257812 12.109375 0.03125 C 11.378906 0.320312 10.507812 0.46875 9.5 0.46875 Z M 11.375 -5 C 12.144531 -5 12.804688 -5.1875 13.359375 -5.5625 C 13.921875 -5.9375 14.359375 -6.445312 14.671875 -7.09375 C 14.984375 -7.75 15.140625 -8.488281 15.140625 -9.3125 C 15.140625 -10.132812 14.984375 -10.851562 14.671875 -11.46875 C 14.359375 -12.082031 13.921875 -12.578125 13.359375 -12.953125 C 12.804688 -13.328125 12.144531 -13.515625 11.375 -13.515625 C 10.625 -13.515625 9.960938 -13.328125 9.390625 -12.953125 C 8.828125 -12.578125 8.390625 -12.082031 8.078125 -11.46875 C 7.765625 -10.851562 7.609375 -10.132812 7.609375 -9.3125 C 7.609375 -8.488281 7.765625 -7.75 8.078125 -7.09375 C 8.390625 -6.445312 8.828125 -5.9375 9.390625 -5.5625 C 9.960938 -5.1875 10.625 -5 11.375 -5 Z M 11.375 -5 "/></g></g></g><g fill="#ffffff" fill-opacity="1"><g transform="translate(92.180973, 46.158085)"><g><path d="M 1.703125 0 L 1.703125 -13.046875 C 1.703125 -14.785156 2.203125 -16.15625 3.203125 -17.15625 C 4.203125 -18.15625 5.597656 -18.65625 7.390625 -18.65625 L 13.109375 -18.65625 L 13.109375 -13.734375 L 9.3125 -13.734375 C 8.925781 -13.734375 8.609375 -13.613281 8.359375 -13.375 C 8.117188 -13.132812 8 -12.816406 8 -12.421875 L 8 0 Z M 1.703125 0 "/></g></g></g><g fill="#ffffff" fill-opacity="1"><g transform="translate(105.769306, 46.158085)"><g><path d="M 1.8125 0 L 1.8125 -18.65625 L 8.109375 -18.65625 L 8.109375 0 Z M 4.546875 -20.90625 C 3.585938 -20.90625 2.757812 -21.253906 2.0625 -21.953125 C 1.375 -22.660156 1.03125 -23.484375 1.03125 -24.421875 C 1.03125 -25.390625 1.375 -26.21875 2.0625 -26.90625 C 2.757812 -27.59375 3.585938 -27.9375 4.546875 -27.9375 C 5.515625 -27.9375 6.34375 -27.59375 7.03125 -26.90625 C 7.71875 -26.21875 8.0625 -25.390625 8.0625 -24.421875 C 8.0625 -23.484375 7.71875 -22.660156 7.03125 -21.953125 C 6.34375 -21.253906 5.515625 -20.90625 4.546875 -20.90625 Z M 4.546875 -20.90625 "/></g></g></g><g fill="#ffffff" fill-opacity="1"><g transform="translate(115.697851, 46.158085)"><g><path d="M 11.921875 0 C 9.816406 0 7.960938 -0.375 6.359375 -1.125 C 4.753906 -1.875 3.484375 -2.945312 2.546875 -4.34375 C 1.617188 -5.75 1.15625 -7.40625 1.15625 -9.3125 C 1.15625 -11.4375 1.601562 -13.222656 2.5 -14.671875 C 3.394531 -16.117188 4.578125 -17.21875 6.046875 -17.96875 C 7.523438 -18.71875 9.109375 -19.09375 10.796875 -19.09375 C 12.628906 -19.09375 14.21875 -18.710938 15.5625 -17.953125 C 16.90625 -17.191406 17.941406 -16.125 18.671875 -14.75 C 19.410156 -13.375 19.78125 -11.765625 19.78125 -9.921875 C 19.78125 -9.535156 19.757812 -9.09375 19.71875 -8.59375 C 19.6875 -8.101562 19.625 -7.691406 19.53125 -7.359375 L 7.6875 -7.359375 C 7.832031 -6.828125 8.066406 -6.382812 8.390625 -6.03125 C 8.710938 -5.675781 9.144531 -5.414062 9.6875 -5.25 C 10.238281 -5.082031 10.863281 -5 11.5625 -5 L 17.71875 -5 L 17.71875 0 Z M 7.46875 -11.015625 L 13.84375 -11.015625 C 13.84375 -11.378906 13.789062 -11.710938 13.6875 -12.015625 C 13.59375 -12.316406 13.460938 -12.597656 13.296875 -12.859375 C 13.128906 -13.128906 12.921875 -13.359375 12.671875 -13.546875 C 12.429688 -13.742188 12.144531 -13.890625 11.8125 -13.984375 C 11.476562 -14.078125 11.113281 -14.125 10.71875 -14.125 C 10.21875 -14.125 9.773438 -14.039062 9.390625 -13.875 C 9.003906 -13.707031 8.675781 -13.484375 8.40625 -13.203125 C 8.132812 -12.929688 7.921875 -12.609375 7.765625 -12.234375 C 7.609375 -11.859375 7.507812 -11.453125 7.46875 -11.015625 Z M 7.46875 -11.015625 "/></g></g></g><g fill="#ffffff" fill-opacity="1"><g transform="translate(136.60577, 46.158085)"><g><path d="M 1.453125 -7.03125 L 1.453125 -11.5625 L 11.703125 -11.5625 L 11.703125 -7.03125 Z M 1.453125 -7.03125 "/></g></g></g><g fill="#ffffff" fill-opacity="1"><g transform="translate(149.759278, 46.158085)"><g><path d="M 2.171875 0 L 2.171875 -5.609375 L 12.96875 -5.609375 C 13.425781 -5.609375 13.816406 -5.707031 14.140625 -5.90625 C 14.472656 -6.101562 14.734375 -6.367188 14.921875 -6.703125 C 15.117188 -7.035156 15.21875 -7.398438 15.21875 -7.796875 C 15.21875 -8.203125 15.117188 -8.570312 14.921875 -8.90625 C 14.734375 -9.25 14.472656 -9.515625 14.140625 -9.703125 C 13.816406 -9.898438 13.425781 -10 12.96875 -10 L 9.390625 -10 C 7.867188 -10 6.488281 -10.300781 5.25 -10.90625 C 4.019531 -11.507812 3.035156 -12.375 2.296875 -13.5 C 1.566406 -14.625 1.203125 -15.984375 1.203125 -17.578125 C 1.203125 -19.140625 1.550781 -20.503906 2.25 -21.671875 C 2.945312 -22.847656 3.882812 -23.753906 5.0625 -24.390625 C 6.25 -25.035156 7.566406 -25.359375 9.015625 -25.359375 L 20.40625 -25.359375 L 20.40625 -19.75 L 9.890625 -19.75 C 9.503906 -19.75 9.160156 -19.65625 8.859375 -19.46875 C 8.554688 -19.289062 8.320312 -19.054688 8.15625 -18.765625 C 7.988281 -18.472656 7.90625 -18.148438 7.90625 -17.796875 C 7.90625 -17.429688 7.988281 -17.097656 8.15625 -16.796875 C 8.320312 -16.492188 8.554688 -16.25 8.859375 -16.0625 C 9.160156 -15.882812 9.503906 -15.796875 9.890625 -15.796875 L 13.703125 -15.796875 C 15.367188 -15.796875 16.820312 -15.476562 18.0625 -14.84375 C 19.300781 -14.21875 20.257812 -13.34375 20.9375 -12.21875 C 21.613281 -11.101562 21.953125 -9.785156 21.953125 -8.265625 C 21.953125 -6.523438 21.59375 -5.03125 20.875 -3.78125 C 20.164062 -2.539062 19.210938 -1.597656 18.015625 -0.953125 C 16.828125 -0.316406 15.507812 0 14.0625 0 Z M 2.171875 0 "/></g></g></g><g fill="#ffffff" fill-opacity="1"><g transform="translate(172.841331, 46.158085)"><g><path d="M 11.34375 0.4375 C 9.457031 0.4375 7.742188 0.0195312 6.203125 -0.8125 C 4.671875 -1.644531 3.445312 -2.796875 2.53125 -4.265625 C 1.613281 -5.742188 1.15625 -7.4375 1.15625 -9.34375 C 1.15625 -11.226562 1.613281 -12.90625 2.53125 -14.375 C 3.445312 -15.851562 4.675781 -17.007812 6.21875 -17.84375 C 7.769531 -18.675781 9.488281 -19.09375 11.375 -19.09375 C 13.257812 -19.09375 14.96875 -18.675781 16.5 -17.84375 C 18.039062 -17.007812 19.257812 -15.851562 20.15625 -14.375 C 21.0625 -12.90625 21.515625 -11.226562 21.515625 -9.34375 C 21.515625 -7.4375 21.0625 -5.742188 20.15625 -4.265625 C 19.257812 -2.796875 18.039062 -1.644531 16.5 -0.8125 C 14.96875 0.0195312 13.25 0.4375 11.34375 0.4375 Z M 11.34375 -5.140625 C 12.113281 -5.140625 12.796875 -5.320312 13.390625 -5.6875 C 13.984375 -6.050781 14.4375 -6.550781 14.75 -7.1875 C 15.0625 -7.832031 15.21875 -8.550781 15.21875 -9.34375 C 15.21875 -10.164062 15.0625 -10.890625 14.75 -11.515625 C 14.4375 -12.148438 13.984375 -12.644531 13.390625 -13 C 12.796875 -13.363281 12.113281 -13.546875 11.34375 -13.546875 C 10.570312 -13.546875 9.894531 -13.363281 9.3125 -13 C 8.726562 -12.644531 8.273438 -12.148438 7.953125 -11.515625 C 7.628906 -10.890625 7.46875 -10.164062 7.46875 -9.34375 C 7.46875 -8.550781 7.628906 -7.832031 7.953125 -7.1875 C 8.273438 -6.550781 8.726562 -6.050781 9.3125 -5.6875 C 9.894531 -5.320312 10.570312 -5.140625 11.34375 -5.140625 Z M 11.34375 -5.140625 "/></g></g></g><g fill="#ffffff" fill-opacity="1"><g transform="translate(195.524786, 46.158085)"><g><path d="M 11.890625 -19.125 C 13.453125 -19.125 14.863281 -18.882812 16.125 -18.40625 C 17.382812 -17.925781 18.453125 -17.234375 19.328125 -16.328125 C 20.210938 -15.421875 20.890625 -14.347656 21.359375 -13.109375 C 21.828125 -11.878906 22.0625 -10.53125 22.0625 -9.0625 C 22.0625 -7.175781 21.679688 -5.519531 20.921875 -4.09375 C 20.160156 -2.664062 19.101562 -1.550781 17.75 -0.75 C 16.394531 0.0390625 14.863281 0.4375 13.15625 0.4375 C 12.476562 0.4375 11.820312 0.347656 11.1875 0.171875 C 10.5625 0.00390625 9.992188 -0.238281 9.484375 -0.5625 C 8.984375 -0.882812 8.539062 -1.273438 8.15625 -1.734375 L 8 -1.734375 L 8 7.796875 L 1.703125 7.796875 L 1.703125 -8.984375 C 1.703125 -11.035156 2.125 -12.820312 2.96875 -14.34375 C 3.8125 -15.863281 5 -17.039062 6.53125 -17.875 C 8.070312 -18.707031 9.859375 -19.125 11.890625 -19.125 Z M 11.890625 -13.65625 C 11.160156 -13.65625 10.503906 -13.46875 9.921875 -13.09375 C 9.347656 -12.71875 8.898438 -12.207031 8.578125 -11.5625 C 8.265625 -10.925781 8.109375 -10.1875 8.109375 -9.34375 C 8.109375 -8.570312 8.265625 -7.863281 8.578125 -7.21875 C 8.898438 -6.582031 9.347656 -6.078125 9.921875 -5.703125 C 10.503906 -5.328125 11.160156 -5.140625 11.890625 -5.140625 C 12.660156 -5.140625 13.328125 -5.328125 13.890625 -5.703125 C 14.460938 -6.078125 14.898438 -6.582031 15.203125 -7.21875 C 15.503906 -7.863281 15.65625 -8.570312 15.65625 -9.34375 C 15.65625 -10.1875 15.503906 -10.925781 15.203125 -11.5625 C 14.898438 -12.207031 14.460938 -12.71875 13.890625 -13.09375 C 13.328125 -13.46875 12.660156 -13.65625 11.890625 -13.65625 Z M 11.890625 -13.65625 "/></g></g></g><g fill="#ffffff" fill-opacity="1"><g transform="translate(218.788018, 46.158085)"><g><path d="M 1.8125 0 L 1.8125 -26.453125 L 8.078125 -26.453125 L 8.078125 -17.53125 C 8.804688 -18.0625 9.59375 -18.453125 10.4375 -18.703125 C 11.28125 -18.960938 12.113281 -19.09375 12.9375 -19.09375 C 14.582031 -19.09375 15.976562 -18.742188 17.125 -18.046875 C 18.269531 -17.347656 19.15625 -16.367188 19.78125 -15.109375 C 20.40625 -13.847656 20.71875 -12.382812 20.71875 -10.71875 L 20.71875 0 L 14.421875 0 L 14.421875 -10.328125 C 14.421875 -10.984375 14.273438 -11.550781 13.984375 -12.03125 C 13.691406 -12.507812 13.304688 -12.878906 12.828125 -13.140625 C 12.347656 -13.410156 11.828125 -13.546875 11.265625 -13.546875 C 10.710938 -13.546875 10.191406 -13.421875 9.703125 -13.171875 C 9.222656 -12.921875 8.832031 -12.550781 8.53125 -12.0625 C 8.226562 -11.582031 8.078125 -11.03125 8.078125 -10.40625 L 8.078125 0 Z M 1.8125 0 "/></g></g></g><g fill="#ffffff" fill-opacity="1"><g transform="translate(241.290294, 46.158085)"><g><path d="M 1.8125 0 L 1.8125 -18.65625 L 8.109375 -18.65625 L 8.109375 0 Z M 4.546875 -20.90625 C 3.585938 -20.90625 2.757812 -21.253906 2.0625 -21.953125 C 1.375 -22.660156 1.03125 -23.484375 1.03125 -24.421875 C 1.03125 -25.390625 1.375 -26.21875 2.0625 -26.90625 C 2.757812 -27.59375 3.585938 -27.9375 4.546875 -27.9375 C 5.515625 -27.9375 6.34375 -27.59375 7.03125 -26.90625 C 7.71875 -26.21875 8.0625 -25.390625 8.0625 -24.421875 C 8.0625 -23.484375 7.71875 -22.660156 7.03125 -21.953125 C 6.34375 -21.253906 5.515625 -20.90625 4.546875 -20.90625 Z M 4.546875 -20.90625 "/></g></g></g><g fill="#ffffff" fill-opacity="1"><g transform="translate(251.218839, 46.158085)"><g><path d="M 11.921875 0 C 9.816406 0 7.960938 -0.375 6.359375 -1.125 C 4.753906 -1.875 3.484375 -2.945312 2.546875 -4.34375 C 1.617188 -5.75 1.15625 -7.40625 1.15625 -9.3125 C 1.15625 -11.4375 1.601562 -13.222656 2.5 -14.671875 C 3.394531 -16.117188 4.578125 -17.21875 6.046875 -17.96875 C 7.523438 -18.71875 9.109375 -19.09375 10.796875 -19.09375 C 12.628906 -19.09375 14.21875 -18.710938 15.5625 -17.953125 C 16.90625 -17.191406 17.941406 -16.125 18.671875 -14.75 C 19.410156 -13.375 19.78125 -11.765625 19.78125 -9.921875 C 19.78125 -9.535156 19.757812 -9.09375 19.71875 -8.59375 C 19.6875 -8.101562 19.625 -7.691406 19.53125 -7.359375 L 7.6875 -7.359375 C 7.832031 -6.828125 8.066406 -6.382812 8.390625 -6.03125 C 8.710938 -5.675781 9.144531 -5.414062 9.6875 -5.25 C 10.238281 -5.082031 10.863281 -5 11.5625 -5 L 17.71875 -5 L 17.71875 0 Z M 7.46875 -11.015625 L 13.84375 -11.015625 C 13.84375 -11.378906 13.789062 -11.710938 13.6875 -12.015625 C 13.59375 -12.316406 13.460938 -12.597656 13.296875 -12.859375 C 13.128906 -13.128906 12.921875 -13.359375 12.671875 -13.546875 C 12.429688 -13.742188 12.144531 -13.890625 11.8125 -13.984375 C 11.476562 -14.078125 11.113281 -14.125 10.71875 -14.125 C 10.21875 -14.125 9.773438 -14.039062 9.390625 -13.875 C 9.003906 -13.707031 8.675781 -13.484375 8.40625 -13.203125 C 8.132812 -12.929688 7.921875 -12.609375 7.765625 -12.234375 C 7.609375 -11.859375 7.507812 -11.453125 7.46875 -11.015625 Z M 7.46875 -11.015625 "/></g></g></g><g fill="#ffffff" fill-opacity="1"><g transform="translate(272.126747, 46.158085)"><g/></g></g><g fill="#ffffff" fill-opacity="1"><g transform="translate(281.72917, 46.158085)"><g><path d="M 0.71875 6.515625 L 0.71875 1.296875 L 3.90625 1.296875 C 4.175781 1.296875 4.394531 1.210938 4.5625 1.046875 C 4.726562 0.878906 4.8125 0.664062 4.8125 0.40625 L 4.8125 -5.9375 C 4.8125 -6.59375 4.878906 -7.160156 5.015625 -7.640625 C 5.148438 -8.128906 5.363281 -8.570312 5.65625 -8.96875 C 5.945312 -9.363281 6.332031 -9.71875 6.8125 -10.03125 C 6.332031 -10.375 5.945312 -10.738281 5.65625 -11.125 C 5.363281 -11.507812 5.148438 -11.9375 5.015625 -12.40625 C 4.878906 -12.875 4.8125 -13.398438 4.8125 -13.984375 L 4.8125 -20.328125 C 4.8125 -20.585938 4.726562 -20.800781 4.5625 -20.96875 C 4.394531 -21.144531 4.175781 -21.234375 3.90625 -21.234375 L 0.71875 -21.234375 L 0.71875 -26.453125 L 4.96875 -26.453125 C 6.726562 -26.453125 8.101562 -25.96875 9.09375 -25 C 10.082031 -24.03125 10.578125 -22.691406 10.578125 -20.984375 L 10.578125 -13.484375 C 10.578125 -13.265625 10.648438 -13.066406 10.796875 -12.890625 C 10.941406 -12.722656 11.125 -12.640625 11.34375 -12.640625 L 13.265625 -12.640625 L 13.265625 -7.421875 L 11.34375 -7.421875 C 11.195312 -7.421875 11.0625 -7.382812 10.9375 -7.3125 C 10.820312 -7.238281 10.734375 -7.140625 10.671875 -7.015625 C 10.609375 -6.898438 10.578125 -6.769531 10.578125 -6.625 L 10.578125 1.015625 C 10.578125 2.734375 10.082031 4.078125 9.09375 5.046875 C 8.101562 6.023438 6.726562 6.515625 4.96875 6.515625 Z M 0.71875 6.515625 "/></g></g></g></svg>