<svg xmlns="http://www.w3.org/2000/svg" xmlns:xlink="http://www.w3.org/1999/xlink" width="40" zoomAndPan="magnify" viewBox="0 0 30 30.000001" height="40" preserveAspectRatio="xMidYMid meet" version="1.0"><defs><clipPath id="75a4be2f33"><path d="M 0.484375 0 L 29.515625 0 L 29.515625 29.03125 L 0.484375 29.03125 Z M 0.484375 0 " clip-rule="nonzero"/></clipPath></defs><g clip-path="url(#75a4be2f33)"><path fill="#2a3439" d="M 15 1.769531 C 7.972656 1.769531 2.253906 7.488281 2.253906 14.515625 C 2.253906 21.546875 7.972656 27.265625 15 27.265625 C 22.027344 27.265625 27.746094 21.546875 27.746094 14.515625 C 27.746094 7.488281 22.027344 1.769531 15 1.769531 Z M 15 29.03125 C 13.039062 29.03125 11.140625 28.648438 9.347656 27.890625 C 7.621094 27.160156 6.066406 26.113281 4.734375 24.78125 C 3.402344 23.449219 2.355469 21.894531 1.625 20.167969 C 0.867188 18.375 0.484375 16.476562 0.484375 14.515625 C 0.484375 12.558594 0.867188 10.65625 1.625 8.867188 C 2.355469 7.136719 3.402344 5.585938 4.734375 4.25 C 6.066406 2.917969 7.621094 1.871094 9.347656 1.140625 C 11.140625 0.382812 13.039062 0 15 0 C 16.960938 0 18.859375 0.382812 20.652344 1.140625 C 22.378906 1.871094 23.933594 2.917969 25.265625 4.25 C 26.597656 5.585938 27.644531 7.136719 28.375 8.867188 C 29.132812 10.65625 29.515625 12.558594 29.515625 14.515625 C 29.515625 16.476562 29.132812 18.375 28.375 20.167969 C 27.644531 21.894531 26.597656 23.449219 25.265625 24.78125 C 23.933594 26.113281 22.378906 27.160156 20.652344 27.890625 C 18.859375 28.648438 16.960938 29.03125 15 29.03125 " fill-opacity="1" fill-rule="nonzero"/></g><path fill="#2a3439" d="M 12.3125 9.875 C 12.3125 10.832031 11.535156 11.609375 10.578125 11.609375 C 9.621094 11.609375 8.84375 10.832031 8.84375 9.875 C 8.84375 8.914062 9.621094 8.136719 10.578125 8.136719 C 11.535156 8.136719 12.3125 8.914062 12.3125 9.875 " fill-opacity="1" fill-rule="nonzero"/><path fill="#2a3439" d="M 20.765625 9.800781 C 20.765625 10.757812 19.988281 11.535156 19.03125 11.535156 C 18.070312 11.535156 17.292969 10.757812 17.292969 9.800781 C 17.292969 8.839844 18.070312 8.0625 19.03125 8.0625 C 19.988281 8.0625 20.765625 8.839844 20.765625 9.800781 " fill-opacity="1" fill-rule="nonzero"/><path fill="#2a3439" d="M 14.796875 21.851562 C 14.308594 21.851562 13.914062 21.457031 13.914062 20.96875 C 13.914062 20.480469 14.308594 20.082031 14.796875 20.082031 C 17.511719 20.082031 18.734375 18.707031 19.21875 17.886719 C 19.46875 17.46875 20.011719 17.328125 20.433594 17.578125 C 20.851562 17.828125 20.992188 18.371094 20.742188 18.789062 C 20.238281 19.640625 19.507812 20.367188 18.636719 20.882812 C 17.550781 21.527344 16.257812 21.851562 14.796875 21.851562 " fill-opacity="1" fill-rule="nonzero"/><path fill="#2a3439" d="M 14.796875 21.851562 C 13.351562 21.851562 11.96875 21.523438 10.804688 20.902344 C 9.789062 20.359375 8.960938 19.609375 8.472656 18.789062 C 8.226562 18.371094 8.363281 17.828125 8.785156 17.578125 C 9.203125 17.328125 9.746094 17.46875 9.996094 17.886719 C 10.480469 18.703125 12.035156 20.082031 14.796875 20.082031 C 15.285156 20.082031 15.683594 20.480469 15.683594 20.96875 C 15.683594 21.457031 15.285156 21.851562 14.796875 21.851562 " fill-opacity="1" fill-rule="nonzero"/></svg>